<svg xmlns="http://www.w3.org/2000/svg" xmlns:xlink="http://www.w3.org/1999/xlink" viewBox="0 0 266.76 236.97"><defs><style>.cls-1,.cls-22{fill:none;}.cls-2{fill:#a3bad2;}.cls-3{clip-path:url(#clip-path);}.cls-4{fill:#173261;}.cls-5{fill:#def1fb;}.cls-6{fill:#b7d34a;}.cls-7{fill:#b8daec;}.cls-8{fill:#8fbecf;}.cls-9{fill:#5ba8bf;}.cls-10{fill:#fcf2d6;}.cls-11{fill:#fffffd;}.cls-12{fill:#e8e6f2;}.cls-13{fill:#3f81aa;}.cls-14{fill:#6e6e3b;}.cls-15{fill:#648133;}.cls-16{fill:#a5ba42;}.cls-17{fill:#2892b3;}.cls-18{fill:#17719e;}.cls-19{fill:#ecf5ec;}.cls-20{fill:#07084d;}.cls-21{fill:#fff;}.cls-22{stroke:#fff;stroke-linecap:round;stroke-miterlimit:10;stroke-width:1.35px;}</style><clipPath id="clip-path" transform="translate(35.73 13.85)"><path class="cls-1" d="M19.37,147.72c0,6.39,1.68,10.24,3.73,12.15l38.36,35.66A15,15,0,0,0,70.28,199h53.46a15,15,0,0,0,8.82-3.47l38.36-35.66c2.05-1.91,3.73-5.76,3.73-12.15V48.58c0,.8-1.68-3-3.73-5L132.56,8a15,15,0,0,0-8.82-3.47H70.28A15,15,0,0,0,61.46,8L23.1,43.62c-2.05,1.91-3.73,5.76-3.73,5Z"/></clipPath></defs><g id="レイヤー_2" data-name="レイヤー 2"><g id="オブジェクト"><path class="cls-2" d="M123.74,4.49A15,15,0,0,1,132.56,8l38.36,35.67a13.42,13.42,0,0,1,3.73,8.56V125h9.79a5.1,5.1,0,0,1,5.09,5.09v35.7a5.1,5.1,0,0,1-5.09,5.09H159.13l-26.57,24.69a15,15,0,0,1-8.82,3.47H70.28a15,15,0,0,1-8.82-3.47L34.89,170.84H9.58a5.1,5.1,0,0,1-5.09-5.09v-35.7A5.1,5.1,0,0,1,9.58,125h9.79V52.18a13.42,13.42,0,0,1,3.73-8.56L61.46,8a15,15,0,0,1,8.82-3.46h53.46m0-4.49H70.28A19.53,19.53,0,0,0,58.4,4.67L20,40.33a18,18,0,0,0-5.16,11.85v68.29H9.58A9.59,9.59,0,0,0,0,130.05v35.7a9.59,9.59,0,0,0,9.58,9.58H33.13L58.4,198.82a19.53,19.53,0,0,0,11.88,4.67h53.46a19.53,19.53,0,0,0,11.88-4.67l25.27-23.49h23.55a9.59,9.59,0,0,0,9.58-9.58v-35.7a9.59,9.59,0,0,0-9.58-9.58h-5.3V52.18A18,18,0,0,0,174,40.33L135.62,4.67A19.53,19.53,0,0,0,123.74,0Z" transform="translate(35.73 13.85)"/><g class="cls-3"><polygon class="cls-4" points="266.76 236.97 172.28 236.97 0 236.97 0 156.74 266.76 156.74 266.76 236.97"/><polygon class="cls-5" points="244.42 126.78 165.76 126.78 22.34 126.78 22.34 95.09 244.42 95.09 244.42 126.78"/><polygon class="cls-6" points="244.42 154.71 165.76 154.71 22.34 154.71 22.34 123.01 244.42 123.01 244.42 154.71"/><polygon class="cls-7" points="244.42 95.09 165.76 95.09 22.34 95.09 22.34 63.39 244.42 63.39 244.42 95.09"/><polygon class="cls-8" points="244.42 63.39 165.76 63.39 22.34 63.39 22.34 31.7 244.42 31.7 244.42 63.39"/><polygon class="cls-9" points="244.42 31.7 165.76 31.7 22.34 31.7 22.34 0 244.42 0 244.42 31.7"/></g><circle class="cls-10" cx="97.32" cy="61.7" r="17.02"/><path class="cls-11" d="M130.88,116.74v-90H86.62v90Z" transform="translate(35.73 13.85)"/><path class="cls-12" d="M130.88,116.74v-90h-21v90Z" transform="translate(35.73 13.85)"/><rect class="cls-13" x="122.35" y="97.11" width="44.26" height="3.44"/><rect class="cls-13" x="122.35" y="107.17" width="44.26" height="3.44"/><rect class="cls-13" x="122.35" y="117.22" width="44.26" height="3.44"/><rect class="cls-13" x="122.35" y="87.06" width="44.26" height="3.44"/><rect class="cls-13" x="122.35" y="77" width="44.26" height="3.44"/><rect class="cls-13" x="122.35" y="66.94" width="44.26" height="3.44"/><rect class="cls-13" x="122.35" y="56.89" width="44.26" height="3.44"/><rect class="cls-13" x="122.35" y="46.83" width="44.26" height="3.44"/><rect class="cls-14" x="79.06" y="122.34" width="2.3" height="8.65"/><path class="cls-15" d="M44.41,72.93a7,7,0,0,1,5.09,3.8c2.26,4.21,3.38,9.94,3.52,18.86s-.86,16-8.61,16Z" transform="translate(35.73 13.85)"/><path class="cls-16" d="M44.41,72.93a7,7,0,0,0-5.1,3.8c-2.26,4.21-3.37,9.94-3.51,18.86s.86,16,8.61,16Z" transform="translate(35.73 13.85)"/><polygon class="cls-17" points="96.65 130.59 132.74 130.59 132.74 68.57 96.65 68.57 96.65 130.38 96.65 130.55 96.65 130.55 96.65 130.59"/><polygon class="cls-18" points="114.69 130.59 132.74 130.59 132.74 68.57 114.69 68.57 114.69 130.38 114.69 130.55 114.69 130.55 114.69 130.59"/><path class="cls-19" d="M65.91,66v-5.6h6V66Zm0,10.44v-5.6h6v5.6ZM76,66v-5.6h6V66Zm0,10.44v-5.6h6v5.6ZM86,66v-5.6h6V66Zm0,10.44v-5.6h6v5.6ZM65.91,86.87v-5.6h6v5.6Zm10,0v-5.6h6v5.6Zm10,0v-5.6h6v5.6ZM65.91,97.31v-5.6h6v5.6Zm10,0v-5.6h6v5.6Zm10,0v-5.6h6v5.6ZM65.91,107.75v-5.6h6v5.6Zm10,0v-5.6h6v5.6Zm10,0v-5.6h6v5.6Z" transform="translate(35.73 13.85)"/><rect class="cls-20" x="40.22" y="138.81" width="185.04" height="45.87" rx="5.09"/><path class="cls-21" d="M21.46,144.24v-1.7c0-1.84-.77-2.63-1.64-2.63-1.37,0-1.8.79-1.8,2.42v11.09c0,1.64.43,2.43,1.8,2.43s1.64-.79,1.64-2.22V151h3.38v2.51c0,3.09-1.64,5.61-5,5.61-3.55,0-5.18-2.52-5.18-5.61V142.24c0-3.09,1.63-5.61,5.18-5.61,3.38,0,5,2.73,5,6v1.61Z" transform="translate(35.73 13.85)"/><path class="cls-21" d="M29.91,142.24c0-3.09,1.64-5.61,5.18-5.61s5.19,2.52,5.19,5.61v11.27c0,3.09-1.64,5.61-5.19,5.61s-5.18-2.52-5.18-5.61Zm3.38,11.18c0,1.64.44,2.43,1.8,2.43s1.81-.79,1.81-2.43V142.33c0-1.63-.44-2.42-1.81-2.42s-1.8.79-1.8,2.42Z" transform="translate(35.73 13.85)"/><path class="cls-21" d="M45.19,158.82V136.94h3.13l4.12,12.51h.06V136.94h3v21.88H52.61L48.3,145.15h-.06v13.67Z" transform="translate(35.73 13.85)"/><path class="cls-21" d="M66.63,142.33c-.14-1.88-1-2.42-1.8-2.42-1.09,0-1.7.79-1.7,2.15,0,3.73,6.88,5.51,6.88,11.45,0,3.61-2.18,5.61-5.35,5.61s-4.94-2.79-5.07-6.06l3.22-.52c.13,2.22.93,3.31,2,3.31a1.82,1.82,0,0,0,2-2c0-4.34-6.87-5.49-6.87-11.76,0-3.49,1.91-5.46,5.23-5.46,2.76,0,4.4,2.22,4.7,5.31Z" transform="translate(35.73 13.85)"/><path class="cls-21" d="M76.17,140.21H72.9v-3.27h9.93v3.27H79.56v18.61H76.17Z" transform="translate(35.73 13.85)"/><path class="cls-21" d="M89.84,158.82H86.46V136.94H91.2c3.8,0,5.73,1.79,5.73,6.45,0,3.52-1.23,4.94-2.37,5.52l2.86,9.91H94l-2.4-9.06a15,15,0,0,1-1.75.09Zm0-12.06H91c1.83,0,2.51-.76,2.51-3.37S92.87,140,91,140h-1.2Z" transform="translate(35.73 13.85)"/><path class="cls-21" d="M101.73,136.94h3.38v16.51c0,1.61.58,2.4,1.81,2.4s1.8-.79,1.8-2.4V136.94h3.38V153.3c0,3.76-2,5.82-5.18,5.82s-5.19-2.06-5.19-5.82Z" transform="translate(35.73 13.85)"/><path class="cls-21" d="M123.83,144.24v-1.7c0-1.84-.77-2.63-1.64-2.63-1.36,0-1.8.79-1.8,2.42v11.09c0,1.64.44,2.43,1.8,2.43s1.64-.79,1.64-2.22V151h3.38v2.51c0,3.09-1.64,5.61-5,5.61-3.55,0-5.18-2.52-5.18-5.61V142.24c0-3.09,1.63-5.61,5.18-5.61,3.38,0,5,2.73,5,6v1.61Z" transform="translate(35.73 13.85)"/><path class="cls-21" d="M134.25,140.21H131v-3.27h9.93v3.27h-3.27v18.61h-3.38Z" transform="translate(35.73 13.85)"/><path class="cls-21" d="M145,158.82V136.94h3.39v21.88Z" transform="translate(35.73 13.85)"/><path class="cls-21" d="M153.75,142.24c0-3.09,1.64-5.61,5.18-5.61s5.19,2.52,5.19,5.61v11.27c0,3.09-1.64,5.61-5.19,5.61s-5.18-2.52-5.18-5.61Zm3.38,11.18c0,1.64.44,2.43,1.8,2.43s1.8-.79,1.8-2.43V142.33c0-1.63-.43-2.42-1.8-2.42s-1.8.79-1.8,2.42Z" transform="translate(35.73 13.85)"/><path class="cls-21" d="M169,158.82V136.94h3.14l4.12,12.51h.06V136.94h3v21.88h-2.94l-4.32-13.67h0v13.67Z" transform="translate(35.73 13.85)"/><path class="cls-20" d="M123.74,9a10.64,10.64,0,0,1,5.76,2.26l38.37,35.67a9.14,9.14,0,0,1,2.29,5.27v77.27h14.28a.62.62,0,0,1,.6.6v35.7a.61.61,0,0,1-.6.59H157.36l-1.29,1.21-26.57,24.7a10.64,10.64,0,0,1-5.76,2.26H70.28a10.64,10.64,0,0,1-5.76-2.26L38,167.55l-1.29-1.21H9.58a.61.61,0,0,1-.6-.59v-35.7a.62.62,0,0,1,.6-.6H23.86V52.18a9.14,9.14,0,0,1,2.29-5.27L64.52,11.24A10.64,10.64,0,0,1,70.28,9h53.46m0-4.49H70.28A15,15,0,0,0,61.46,8L23.1,43.62a13.42,13.42,0,0,0-3.73,8.56V125H9.58a5.1,5.1,0,0,0-5.09,5.09v35.7a5.1,5.1,0,0,0,5.09,5.09H34.89l26.57,24.69A15,15,0,0,0,70.28,199h53.46a15,15,0,0,0,8.82-3.47l26.57-24.69h25.31a5.1,5.1,0,0,0,5.09-5.09v-35.7a5.1,5.1,0,0,0-5.09-5.09h-9.79V52.18a13.42,13.42,0,0,0-3.73-8.56L132.56,8a15,15,0,0,0-8.82-3.46Z" transform="translate(35.73 13.85)"/><rect class="cls-14" x="181.42" y="117.97" width="2.98" height="11.24"/><path class="cls-15" d="M147.19,82.94c1.2.06,4.54.52,6.62,2.4,2.93,2.66,4.38,6.29,4.57,11.93s-1.12,10.09-11.19,10.09Z" transform="translate(35.73 13.85)"/><path class="cls-16" d="M147.19,82.94c-1.21.06-4.55.52-6.62,2.4-2.94,2.66-4.38,6.29-4.57,11.93s1.11,10.09,11.19,10.09Z" transform="translate(35.73 13.85)"/><rect class="cls-14" x="165.47" y="124.03" width="2.41" height="9.07"/><path class="cls-15" d="M130.88,72.91a7.29,7.29,0,0,1,5.34,4c2.37,4.41,3.53,10.42,3.69,19.77s-.9,16.73-9,16.73Z" transform="translate(35.73 13.85)"/><path class="cls-16" d="M130.88,72.91a7.29,7.29,0,0,0-5.34,4c-2.37,4.41-3.54,10.42-3.69,19.77s.9,16.73,9,16.73Z" transform="translate(35.73 13.85)"/><path class="cls-2" d="M90.06,191.13H85.61l6.69-17.45h4.45Z" transform="translate(35.73 13.85)"/><path class="cls-2" d="M97.74,191.13H93.29L100,173.68h4.45Z" transform="translate(35.73 13.85)"/><path class="cls-2" d="M105.42,191.13H101l6.69-17.45h4.45Z" transform="translate(35.73 13.85)"/><line class="cls-22" x1="47.34" y1="145.35" x2="217.02" y2="145.35"/><line class="cls-22" x1="47.34" y1="178.24" x2="217.02" y2="178.24"/></g></g></svg>