<svg xmlns="http://www.w3.org/2000/svg" xmlns:xlink="http://www.w3.org/1999/xlink" viewBox="0 0 277.85 201.79"><defs><style>.cls-1,.cls-16,.cls-2{fill:none;}.cls-1{stroke:#55246e;stroke-width:4.91px;}.cls-1,.cls-2{stroke-miterlimit:10;}.cls-2{stroke:#bba9d1;stroke-width:14.73px;}.cls-3{clip-path:url(#clip-path);}.cls-4{fill:#c66c27;}.cls-5{fill:#dc862d;}.cls-6{fill:#b65922;}.cls-7{fill:#f6d447;}.cls-8{fill:#fcf2d6;}.cls-9{fill:#e8e6f2;}.cls-10{fill:#afbfda;}.cls-11{fill:#55246e;}.cls-12{fill:#8b9aba;}.cls-13{fill:#6a6fa8;}.cls-14{fill:#3f81aa;}.cls-15{fill:#fff;}.cls-17{fill:#bba9d1;}</style><clipPath id="clip-path" transform="translate(1.35 41.37)"><path class="cls-1" d="M213.61,28.48c-23.8-13-58.08-21.11-96.18-21.11S45.05,15.51,21.25,28.48A112.36,112.36,0,0,0,10.5,35.3a8.43,8.43,0,0,0-3,7.72l13.27,68c.52,2.65,1.36,7,1.88,9.64l.2,1a8.84,8.84,0,0,0,5.65,6.19l84.24,24.61a19.74,19.74,0,0,0,9.42,0l84.24-24.61a8.86,8.86,0,0,0,5.65-6.19l.2-1c.51-2.65,1.36-7,1.88-9.64l13.27-68a8.43,8.43,0,0,0-3-7.72A112.36,112.36,0,0,0,213.61,28.48Z"/></clipPath></defs><g id="レイヤー_2" data-name="レイヤー 2"><g id="オブジェクト"><path class="cls-2" d="M213.61,28.48c-23.8-13-58.08-21.11-96.18-21.11S45.05,15.51,21.25,28.48A112.36,112.36,0,0,0,10.5,35.3a8.43,8.43,0,0,0-3,7.72l13.27,68c.52,2.65,1.36,7,1.88,9.64l.2,1a8.84,8.84,0,0,0,5.65,6.19l84.24,24.61a19.74,19.74,0,0,0,9.42,0l84.24-24.61a8.86,8.86,0,0,0,5.65-6.19l.2-1c.51-2.65,1.36-7,1.88-9.64l13.27-68a8.43,8.43,0,0,0-3-7.72A112.36,112.36,0,0,0,213.61,28.48Z" transform="translate(1.35 41.37)"/><g class="cls-3"><polygon class="cls-4" points="138.03 111.31 138.03 111.31 138.03 111.31 138.03 111.31"/><rect class="cls-4" x="136.67" y="69.94" transform="translate(-12.43 141.89) rotate(-38.59)"/><path class="cls-5" d="M136.67,69.94l135.6-29c-.15-.48-.28-1-.44-1.45-6.47-19.26-19-35.91-35.56-49l-99.6,79.48Z" transform="translate(1.35 41.37)"/><path class="cls-6" d="M136.67,69.94l134.22,28.7a87.57,87.57,0,0,0,1.38-57.7l-135.6,29Z" transform="translate(1.35 41.37)"/><rect class="cls-4" x="138.02" y="111.3"/><polygon class="cls-4" points="138.03 111.31 138.03 111.31 138.03 111.31 138.03 111.31"/><path class="cls-7" d="M136.67,69.94l99.6-79.48C218.79-23.4,196.88-33.3,173-38.1l-36.28,108Z" transform="translate(1.35 41.37)"/><path class="cls-8" d="M136.67,69.94,173-38.1a169.45,169.45,0,0,0-68.52.47c-1.21.25-2.4.56-3.59.84L136.67,69.94Z" transform="translate(1.35 41.37)"/><path class="cls-6" d="M136.67,69.94,6.9,42.19A87.44,87.44,0,0,0,7.78,96c.16.48.36,1,.53,1.43L136.67,69.94Z" transform="translate(1.35 41.37)"/><path class="cls-7" d="M100.84-36.79C76.89-31.11,56.28-20.63,40.25-7l96.42,77Z" transform="translate(1.35 41.37)"/><path class="cls-5" d="M136.67,69.94h0L40.25-7C24,6.78,12.48,23.75,6.9,42.19L136.67,69.94Z" transform="translate(1.35 41.37)"/><rect class="cls-9" x="78.03" y="83.17" width="39.51" height="61.2"/><rect class="cls-10" x="97.79" y="83.17" width="19.76" height="61.2"/><polygon class="cls-11" points="117.55 83.17 78.03 83.17 82.45 70.58 113.13 70.58 117.55 83.17"/><rect class="cls-9" x="170.43" y="102.68" width="54.2" height="41.69"/><rect class="cls-10" x="197.53" y="102.68" width="27.1" height="39.29"/><polygon class="cls-11" points="224.63 102.68 170.43 102.68 174.85 83.17 220.21 83.17 224.63 102.68"/><rect class="cls-9" x="14.23" y="116.41" width="43.37" height="27.97"/><rect class="cls-10" x="35.91" y="116.41" width="21.68" height="29.46"/><polygon class="cls-11" points="57.59 116.41 14.23 116.41 18.65 101.7 57.59 101.7 57.59 116.41"/><rect class="cls-12" x="57.54" y="99.34" width="20.54" height="45.03"/><rect class="cls-13" x="68.26" y="99.34" width="9.82" height="45.03"/><rect class="cls-12" x="117.5" y="119.2" width="52.98" height="25.18"/><rect class="cls-13" x="143.99" y="119.2" width="26.49" height="25.18"/><rect class="cls-11" x="117.5" y="108.44" width="52.98" height="10.76"/><polygon class="cls-11" points="78.08 99.33 57.54 99.33 61.96 88.77 78.08 88.77 78.08 99.33"/><rect class="cls-11" y="140.17" width="245.13" height="54.72"/><rect class="cls-14" x="85.09" y="90.93" width="25.92" height="5.59"/><rect class="cls-14" x="85.09" y="100.42" width="25.92" height="5.59"/><rect class="cls-14" x="85.09" y="109.92" width="25.92" height="5.59"/><rect class="cls-14" x="85.09" y="119.41" width="25.92" height="5.59"/><rect class="cls-15" x="64.96" y="109.57" width="7.26" height="13.86"/><rect class="cls-15" x="125" y="123.34" width="7.93" height="4.94"/><rect class="cls-15" x="139.18" y="123.34" width="7.93" height="4.94"/><rect class="cls-15" x="153.37" y="123.34" width="7.93" height="4.94"/><rect class="cls-14" x="179.12" y="108.87" width="7.93" height="5.63"/><rect class="cls-14" x="193.3" y="108.87" width="7.93" height="5.63"/><rect class="cls-14" x="207.49" y="108.87" width="7.93" height="5.63"/><rect class="cls-14" x="179.12" y="117.44" width="7.93" height="5.63"/><rect class="cls-14" x="193.3" y="117.44" width="7.93" height="5.63"/><rect class="cls-14" x="207.49" y="117.44" width="7.93" height="5.63"/><rect class="cls-14" x="20.08" y="120.76" width="6.77" height="5.08"/><rect class="cls-14" x="32.19" y="120.76" width="6.77" height="5.08"/><rect class="cls-14" x="44.3" y="120.76" width="6.77" height="5.08"/><rect class="cls-14" x="20.08" y="128.49" width="6.77" height="5.08"/><rect class="cls-14" x="32.19" y="128.49" width="6.77" height="5.08"/><rect class="cls-14" x="44.3" y="128.49" width="6.77" height="5.08"/></g><path class="cls-1" d="M213.61,28.48c-23.8-13-58.08-21.11-96.18-21.11S45.05,15.51,21.25,28.48A112.36,112.36,0,0,0,10.5,35.3a8.43,8.43,0,0,0-3,7.72l13.27,68c.52,2.65,1.36,7,1.88,9.64l.2,1a8.84,8.84,0,0,0,5.65,6.19l84.24,24.61a19.74,19.74,0,0,0,9.42,0l84.24-24.61a8.86,8.86,0,0,0,5.65-6.19l.2-1c.51-2.65,1.36-7,1.88-9.64l13.27-68a8.43,8.43,0,0,0-3-7.72A112.36,112.36,0,0,0,213.61,28.48Z" transform="translate(1.35 41.37)"/><rect class="cls-16" x="35.91" y="101.7" width="21.68" height="14.71"/><path class="cls-17" d="M46.14,128.92H41.21l7.42-19.33h4.93Z" transform="translate(1.35 41.37)"/><path class="cls-17" d="M54.66,128.92H49.73l7.41-19.33h4.93Z" transform="translate(1.35 41.37)"/><path class="cls-17" d="M63.17,128.92H58.24l7.41-19.33h4.93Z" transform="translate(1.35 41.37)"/><path class="cls-17" d="M172,128.92h-4.93l7.41-19.33h4.93Z" transform="translate(1.35 41.37)"/><path class="cls-17" d="M180.53,128.92H175.6L183,109.59H188Z" transform="translate(1.35 41.37)"/><path class="cls-17" d="M189,128.92h-4.92l7.41-19.33h4.93Z" transform="translate(1.35 41.37)"/><path class="cls-15" d="M78.45,135.32v-26.6h4.11v10.83h4.37V108.72H91v26.6H86.93V123.53H82.56v11.79Z" transform="translate(1.35 41.37)"/><path class="cls-15" d="M95.68,115.17c0-3.76,2-6.82,6.3-6.82s6.3,3.06,6.3,6.82v13.7c0,3.76-2,6.81-6.3,6.81s-6.3-3.05-6.3-6.81Zm4.11,13.59c0,2,.53,3,2.19,3s2.19-1,2.19-3V115.28c0-2-.53-3-2.19-3s-2.19,1-2.19,3Z" transform="translate(1.35 41.37)"/><path class="cls-15" d="M112.92,108.72H117V128.8c0,1.95.7,2.91,2.19,2.91s2.19-1,2.19-2.91V108.72h4.11v19.89c0,4.57-2.39,7.07-6.3,7.07s-6.3-2.5-6.3-7.07Z" transform="translate(1.35 41.37)"/><path class="cls-15" d="M137.65,115.28c-.17-2.29-1.26-3-2.19-3-1.33,0-2.05,1-2.05,2.62,0,4.53,8.35,6.7,8.35,13.92,0,4.38-2.65,6.81-6.5,6.81s-6-3.39-6.16-7.36l3.91-.63c.16,2.69,1.12,4,2.45,4a2.22,2.22,0,0,0,2.39-2.44c0-5.26-8.36-6.66-8.36-14.29,0-4.23,2.32-6.63,6.37-6.63,3.35,0,5.33,2.69,5.7,6.45Z" transform="translate(1.35 41.37)"/><path class="cls-15" d="M145.54,135.32v-26.6h11v4h-6.89v6.85H155v4h-5.3v7.81H157v4Z" transform="translate(1.35 41.37)"/></g></g></svg>