<svg xmlns="http://www.w3.org/2000/svg" xmlns:xlink="http://www.w3.org/1999/xlink" viewBox="0 0 223.51 198.56"><defs><style>.cls-1,.cls-11,.cls-12,.cls-2{fill:none;stroke-miterlimit:10;}.cls-1{stroke:#00496d;}.cls-1,.cls-11,.cls-12{stroke-width:4.67px;}.cls-11,.cls-2{stroke:#5fc0c6;}.cls-2{stroke-width:14.02px;}.cls-3{fill:#dc8300;}.cls-4{clip-path:url(#clip-path);}.cls-5{fill:#efa900;}.cls-6{fill:#f5c927;}.cls-7{fill:#fae948;}.cls-8{fill:#fff;}.cls-9{fill:#bebfbf;}.cls-10{fill:#fffdf7;}.cls-12{stroke:#0670a7;}.cls-13{fill:#5fc0c6;}.cls-14{fill:#b6b6b6;}.cls-15{fill:#7d8685;}.cls-16{fill:#00496d;}</style><clipPath id="clip-path" transform="translate(13.29 14.77)"><path class="cls-1" d="M110.79,12c-3.85-6.68-10.16-6.68-14,0L8.65,164.65c-3.85,6.67-.7,12.14,7,12.14H191.9c7.71,0,10.87-5.47,7-12.14Z"/></clipPath></defs><g id="レイヤー_2" data-name="レイヤー 2"><g id="オブジェクト"><path class="cls-2" d="M110.79,12c-3.85-6.68-10.16-6.68-14,0L8.65,164.65c-3.85,6.67-.7,12.14,7,12.14H191.9c7.71,0,10.87-5.47,7-12.14Z" transform="translate(13.29 14.77)"/><path class="cls-3" d="M110.79,12c-3.85-6.68-10.16-6.68-14,0L8.65,164.65c-3.85,6.67-.7,12.14,7,12.14H191.9c7.71,0,10.87-5.47,7-12.14Z" transform="translate(13.29 14.77)"/><g class="cls-4"><circle class="cls-5" cx="117.07" cy="65.41" r="65.41"/><circle class="cls-6" cx="117.07" cy="65.41" r="49.06"/><circle class="cls-7" cx="117.07" cy="65.41" r="32.71"/><circle class="cls-8" cx="117.07" cy="65.41" r="16.35"/><rect class="cls-9" x="30.67" y="136.14" width="172.68" height="23.83"/><rect class="cls-10" x="150.61" y="112.61" width="22.33" height="47.37"/><rect class="cls-10" x="54.7" y="110.73" width="30.75" height="49.25"/><rect class="cls-10" x="67.6" y="123.63" width="44.08" height="36.35"/><rect class="cls-10" x="101.92" y="114.71" width="29.24" height="45.26"/><rect class="cls-9" x="118.8" y="114.71" width="13.29" height="45.26"/><rect class="cls-9" x="159.03" y="112.61" width="19.24" height="47.37"/><rect class="cls-9" x="70.08" y="110.73" width="15.38" height="49.25"/><line class="cls-11" x1="111.43" y1="83.76" x2="130.66" y2="105.01"/><line class="cls-11" x1="122.72" y1="83.76" x2="103.49" y2="105.01"/><line class="cls-11" x1="103.13" y1="106.65" x2="140.11" y2="128.46"/><line class="cls-11" x1="131.01" y1="106.65" x2="94.03" y2="128.46"/><line class="cls-12" x1="92.89" y1="132.63" x2="141.82" y2="132.63"/><line class="cls-12" x1="144.46" y1="144.17" x2="89.04" y2="144.17"/><line class="cls-12" x1="119.96" y1="74.74" x2="151.28" y2="156.73"/><line class="cls-12" x1="114.18" y1="74.74" x2="82.87" y2="156.73"/><rect class="cls-13" x="114.74" y="41.24" width="4.67" height="28.03"/><rect class="cls-14" x="110.94" y="51.32" width="12.15" height="7.01"/><rect class="cls-14" x="105.39" y="64.4" width="23.36" height="11.68"/><rect class="cls-15" x="117.07" y="64.4" width="11.68" height="11.68"/><rect class="cls-15" x="117.01" y="51.32" width="6.07" height="7.01"/><rect class="cls-16" y="150.85" width="223.51" height="46.49"/></g><path class="cls-1" d="M110.79,12c-3.85-6.68-10.16-6.68-14,0L8.65,164.65c-3.85,6.67-.7,12.14,7,12.14H191.9c7.71,0,10.87-5.47,7-12.14Z" transform="translate(13.29 14.77)"/><path class="cls-8" d="M53.12,168.32V146.43h3.14L60.38,159h.06V146.43h3.05v21.89H60.55l-4.32-13.67h0v13.67Z" transform="translate(13.29 14.77)"/><path class="cls-8" d="M68.41,168.32V146.43h9.06v3.27H71.79v5.64h4.37v3.28H71.79V165h6.06v3.28Z" transform="translate(13.29 14.77)"/><path class="cls-8" d="M84.13,149.7H80.85v-3.27h9.94v3.27H87.51v18.62H84.13Z" transform="translate(13.29 14.77)"/><path class="cls-8" d="M100.28,146.43h2.79l2.29,13.94h.06l1.88-13.94h3.17L107,168.32h-2.84l-2.46-14.46h0l-2.29,14.46H96.52l-3.74-21.89h3.16L98,160.37h0Z" transform="translate(13.29 14.77)"/><path class="cls-8" d="M113.44,151.73c0-3.09,1.64-5.61,5.19-5.61s5.18,2.52,5.18,5.61V163c0,3.09-1.64,5.61-5.18,5.61s-5.19-2.52-5.19-5.61Zm3.38,11.19c0,1.64.44,2.43,1.81,2.43s1.8-.79,1.8-2.43v-11.1c0-1.63-.44-2.42-1.8-2.42s-1.81.79-1.81,2.42Z" transform="translate(13.29 14.77)"/><path class="cls-8" d="M131.29,168.32H127.9V146.43h4.75c3.8,0,5.74,1.79,5.74,6.46,0,3.51-1.23,4.94-2.38,5.51l2.87,9.92h-3.44l-2.4-9.07a15,15,0,0,1-1.75.09Zm0-12.07h1.2c1.83,0,2.51-.76,2.51-3.36s-.68-3.37-2.51-3.37h-1.2Z" transform="translate(13.29 14.77)"/><path class="cls-8" d="M143,168.32V146.43h3.39v8.09h.05l3.55-8.09h3.39l-3.66,8.15,4.12,13.74h-3.44l-2.76-10.19h0l-1.2,2.43v7.76Z" transform="translate(13.29 14.77)"/><path class="cls-13" d="M23.71,166.25H19l7.12-18.54h4.73Z" transform="translate(13.29 14.77)"/><path class="cls-13" d="M31.88,166.25H27.15l7.11-18.54H39Z" transform="translate(13.29 14.77)"/><path class="cls-13" d="M40.05,166.25H35.32l7.11-18.54h4.73Z" transform="translate(13.29 14.77)"/><path class="cls-13" d="M163.08,166.25h-4.73l7.11-18.54h4.73Z" transform="translate(13.29 14.77)"/><path class="cls-13" d="M171.25,166.25h-4.73l7.11-18.54h4.73Z" transform="translate(13.29 14.77)"/><path class="cls-13" d="M179.41,166.25h-4.73l7.12-18.54h4.73Z" transform="translate(13.29 14.77)"/></g></g></svg>