<svg xmlns="http://www.w3.org/2000/svg" xmlns:xlink="http://www.w3.org/1999/xlink" viewBox="0 0 162.37 221.84"><defs><style>.cls-1,.cls-14,.cls-2{fill:none;}.cls-2{stroke:#c8c9ca;stroke-width:14.59px;}.cls-14,.cls-2{stroke-miterlimit:10;}.cls-3{clip-path:url(#clip-path);}.cls-4{fill:#69002a;}.cls-5{fill:#c66c27;}.cls-6{fill:#a5501c;}.cls-7{fill:#dc862d;}.cls-8{fill:#e3a53b;}.cls-9{fill:#fff;}.cls-10{fill:#fcf2d6;}.cls-11{fill:#7d8685;}.cls-12{fill:#5b5f6a;}.cls-13{fill:#eeedec;}.cls-14{stroke:#69002a;stroke-width:4.86px;}.cls-15{fill:#b6b6b6;}.cls-16{fill:#f7b52c;}.cls-17{fill:#dbdcdc;}</style><clipPath id="clip-path" transform="translate(1.92)"><path class="cls-1" d="M149,7.29H12.82A4.87,4.87,0,0,0,8,12.16v115.6C8,168,40.61,195.83,80.89,195.83s72.93-27.79,72.93-68.07V12.16A4.88,4.88,0,0,0,149,7.29Z"/></clipPath></defs><g id="レイヤー_2" data-name="レイヤー 2"><g id="オブジェクト"><path class="cls-2" d="M148.29,7.29H12.16a4.88,4.88,0,0,0-4.87,4.87v115.6C7.29,168,40,195.83,80.22,195.83s72.94-27.79,72.94-68.07V12.16A4.88,4.88,0,0,0,148.29,7.29Z" transform="translate(1.92)"/><g class="cls-3"><rect class="cls-4" y="142.09" width="160.14" height="79.74"/><polygon class="cls-5" points="162.23 107.02 105.43 107.02 1.86 107.02 1.86 73.78 162.23 73.78 162.23 107.02"/><polygon class="cls-6" points="162.23 140.26 105.43 140.26 1.86 140.26 1.86 107.02 162.23 107.02 162.23 140.26"/><polygon class="cls-7" points="162.23 73.78 105.43 73.78 1.86 73.78 1.86 40.53 162.23 40.53 162.23 73.78"/><polygon class="cls-8" points="162.23 40.53 105.43 40.53 1.86 40.53 1.86 7.29 162.23 7.29 162.23 40.53"/><rect class="cls-9" y="137.41" width="160.14" height="5.71"/></g><path class="cls-9" d="M153.16,41.19h-.11c-12.61-.26-18.82,8.53-18.59,18.56-19.17-.65-15.33,14.5-15.33,14.5-6.55,1.12-14.72,4.32-14.72,20.07h15.64s-2.38-4,.8-7.24c5-5.15,11.62,0,12.84-15.63,0,0,10.5,5.24,17.22-.48a11.54,11.54,0,0,0,2.25-2.55Z" transform="translate(1.92)"/><circle class="cls-10" cx="42.99" cy="41.18" r="18.43"/><path class="cls-11" d="M132.3,118.22c-2.76-4.84-4.73-11-4.73-16.27A99.15,99.15,0,0,0,127,91.32H98.4A99.15,99.15,0,0,0,97.86,102c0,5.27-2,11.43-4.73,16.27-5.29,9.26-3.61,15.66-3.61,19.19h46.39C135.91,133.88,137.59,127.48,132.3,118.22Z" transform="translate(1.92)"/><path class="cls-12" d="M132.3,118.22c-2.76-4.84-4.73-11-4.73-16.27A99.15,99.15,0,0,0,127,91.32H112.71v46.09h23.2C135.91,133.88,137.59,127.48,132.3,118.22Z" transform="translate(1.92)"/><path class="cls-9" d="M58.31,72.86c0-15.75,8.17-19,14.72-20.07,0,0-3.84-15.14,15.33-14.5-.23-10,6-18.81,18.59-18.56,7.51.15,14.87,2.8,14.87,11.15,0,12.75-13.62,8.45-13.62,8.45s2,5.57-3.39,10.18C98.09,55.23,87.6,50,87.6,50c-1.23,15.63-7.86,10.48-12.85,15.63-3.18,3.28-.8,7.24-.8,7.24Z" transform="translate(1.92)"/><rect class="cls-13" x="100.08" y="96.62" width="29.33" height="2.2"/><path class="cls-14" d="M149,7.29H12.82A4.87,4.87,0,0,0,8,12.16v115.6C8,168,40.61,195.83,80.89,195.83s72.93-27.79,72.93-68.07V12.16A4.88,4.88,0,0,0,149,7.29Z" transform="translate(1.92)"/><path class="cls-13" d="M92.86,111.07c-3.79-6.64-6.49-15.09-6.49-22.31v-17H45.61s0,8.58,0,17c0,7.22-2.7,15.67-6.48,22.31-7.26,12.72-5,21.49-5,26.34H97.82C97.82,132.56,100.11,123.79,92.86,111.07Z" transform="translate(1.92)"/><path class="cls-15" d="M66,71.79v65.62H97.82c0-4.85,2.29-13.62-5-26.34-3.79-6.64-6.49-15.09-6.49-22.31v-17" transform="translate(1.92)"/><rect class="cls-11" x="47.52" y="78.45" width="40.77" height="4.54"/><path class="cls-9" d="M51.36,173.05V150.26h5.06c4.34,0,6.36,1.87,6.36,6.73s-2,6.72-6.36,6.72H54.88v9.34Zm3.52-12.56h1.36c2.3,0,3-.79,3-3.5s-.71-3.51-3-3.51H54.88Z" transform="translate(1.92)"/><path class="cls-9" d="M64.54,173.05V150.26h3.52v19.38H73.6v3.41Z" transform="translate(1.92)"/><path class="cls-9" d="M79.22,173.05H75.81l3.78-22.79H84l3.78,22.79H84.33L83.71,168H79.85Zm1.14-8.46H83.2l-1.39-9.78h-.06Z" transform="translate(1.92)"/><path class="cls-9" d="M90.07,173.05V150.26h3.27l4.28,13h.06v-13h3.18v22.79H97.79l-4.48-14.23h-.06v14.23Z" transform="translate(1.92)"/><path class="cls-9" d="M106.32,153.67h-3.41v-3.41h10.33v3.41h-3.4v19.38h-3.52Z" transform="translate(1.92)"/><path class="cls-16" d="M27.52,169.38H23.43l6.15-16h4.08Z" transform="translate(1.92)"/><path class="cls-16" d="M34.57,169.38H30.49l6.14-16h4.09Z" transform="translate(1.92)"/><path class="cls-16" d="M41.63,169.38H37.55l6.14-16h4.09Z" transform="translate(1.92)"/><path class="cls-16" d="M120.34,169.38h-4.09l6.15-16h4.08Z" transform="translate(1.92)"/><path class="cls-16" d="M127.4,169.38h-4.09l6.15-16h4.08Z" transform="translate(1.92)"/><path class="cls-16" d="M134.45,169.38h-4.08l6.14-16h4.09Z" transform="translate(1.92)"/><path class="cls-17" d="M103.08,37.92c-1.24.08-1.93,2.06-2.16,3.09,0,0-1.29,5.84-10.19,4.46a1.17,1.17,0,0,0-1.23.85c-.23.92,1.62,1.53,1.62,1.53a14.73,14.73,0,0,0,7.71.17,8,8,0,0,0,4.87-3.52,8.38,8.38,0,0,0,1-3.63c.08-.93,0-2.39-.94-2.81A1.42,1.42,0,0,0,103.08,37.92Z" transform="translate(1.92)"/><path class="cls-17" d="M149.25,59.59c-1.24.08-1.93,2.06-2.16,3.09,0,0-1.29,5.84-10.19,4.46a1.17,1.17,0,0,0-1.23.84c-.23.93,1.62,1.54,1.62,1.54a14.73,14.73,0,0,0,7.71.17,8,8,0,0,0,4.87-3.52,8.38,8.38,0,0,0,1-3.63c.08-.93,0-2.39-.94-2.82A1.53,1.53,0,0,0,149.25,59.59Z" transform="translate(1.92)"/><path class="cls-17" d="M116.48,28.85s.81,5.7-4.36,6.48c0,0-1.59.5-1.52,1.31,0,0,0,1.14,3.08.78a6.25,6.25,0,0,0,5.1-6.23s0-3.61-1.35-3.68C117.43,27.51,116.55,27.44,116.48,28.85Z" transform="translate(1.92)"/></g></g></svg>