<svg xmlns="http://www.w3.org/2000/svg" xmlns:xlink="http://www.w3.org/1999/xlink" viewBox="0 0 235.6 221.69"><defs><style>.cls-1,.cls-2{fill:none;stroke-miterlimit:10;}.cls-1{stroke:#285429;stroke-width:4.49px;}.cls-2{stroke:#c8bb9b;stroke-width:13.47px;}.cls-3{clip-path:url(#clip-path);}.cls-4{fill:#009ea7;}.cls-5{fill:#47bbc5;}.cls-6{fill:#91d1db;}.cls-7{fill:#aedce7;}.cls-8{fill:#285429;}.cls-9{fill:#b7d34a;}.cls-10{fill:#fcf2d6;}.cls-11{fill:#f8f39d;}.cls-12{fill:#fff;}.cls-13{fill:#6e6e3b;}.cls-14{fill:#648133;}.cls-15{fill:#a5ba42;}.cls-16{fill:#cae6eb;}.cls-17{fill:#b2cccb;}.cls-18{fill:#013e6e;}.cls-19{fill:#3c6b8f;}</style><clipPath id="clip-path" transform="translate(40.73 5.7)"><path class="cls-1" d="M154.56,80.65a73.91,73.91,0,0,0-147.82,0c0,.35,0,.7,0,1,0,.11,0,.22,0,.32v79.25A9.68,9.68,0,0,0,11,168.74L76.43,208.2a9,9,0,0,0,8.44,0l65.47-39.46a9.71,9.71,0,0,0,4.22-7.47V82c0-.1,0-.21,0-.32C154.53,81.35,154.56,81,154.56,80.65Z"/></clipPath></defs><g id="レイヤー_2" data-name="レイヤー 2"><g id="オブジェクト"><path class="cls-2" d="M154.56,80.65a73.91,73.91,0,0,0-147.82,0c0,.35,0,.7,0,1,0,.11,0,.22,0,.32v79.25A9.68,9.68,0,0,0,11,168.74L76.43,208.2a9,9,0,0,0,8.44,0l65.47-39.46a9.71,9.71,0,0,0,4.22-7.47V82c0-.1,0-.21,0-.32C154.53,81.35,154.56,81,154.56,80.65Z" transform="translate(40.73 5.7)"/><g class="cls-3"><rect class="cls-4" y="82.61" width="235.38" height="27.54"/><rect class="cls-5" y="55.07" width="235.38" height="27.54"/><rect class="cls-6" x="0.22" y="27.59" width="235.38" height="27.54"/><rect class="cls-7" width="235.38" height="27.54"/><rect class="cls-8" y="110.14" width="235.38" height="105.27"/><polygon class="cls-9" points="235.38 134.72 152.01 134.72 0 134.72 0 110.14 235.38 110.14 235.38 134.72"/></g><path class="cls-1" d="M154.56,80.65a73.91,73.91,0,0,0-147.82,0c0,.35,0,.7,0,1,0,.11,0,.22,0,.32v79.25A9.68,9.68,0,0,0,11,168.74L76.43,208.2a9,9,0,0,0,8.44,0l65.47-39.46a9.71,9.71,0,0,0,4.22-7.47V82c0-.1,0-.21,0-.32C154.53,81.35,154.56,81,154.56,80.65Z" transform="translate(40.73 5.7)"/><circle class="cls-10" cx="148.45" cy="53.99" r="20.56"/><path class="cls-11" d="M22.25,157.32H19v-21h4.57c3.64,0,5.51,1.72,5.51,6.21,0,3.38-1.18,4.75-2.29,5.3l2.76,9.53H26.23l-2.31-8.71a13.67,13.67,0,0,1-1.67.09Zm0-11.6H23.4c1.76,0,2.41-.73,2.41-3.23s-.65-3.24-2.41-3.24H22.25Z" transform="translate(40.73 5.7)"/><path class="cls-11" d="M33.68,157.32v-21h8.71v3.15H36.93v5.42h4.2V148h-4.2v6.18h5.83v3.14Z" transform="translate(40.73 5.7)"/><path class="cls-11" d="M46.9,157.32v-21h3l4,12h0v-12h2.94v21H54l-4.14-13.14h0v13.14Z" transform="translate(40.73 5.7)"/><path class="cls-11" d="M62.11,157.32v-21h8.71v3.15H65.37v5.42h4.19V148H65.37v6.18h5.82v3.14Z" transform="translate(40.73 5.7)"/><path class="cls-11" d="M81.65,136.28h2.68l2.2,13.41h0l1.81-13.41h3l-3.34,21H85.38L83,143.42H83l-2.2,13.9H78l-3.59-21h3l2,13.41h.06Z" transform="translate(40.73 5.7)"/><path class="cls-11" d="M96,157.32H92.85l3.49-21h4l3.49,21h-3.15l-.57-4.66H96.58Zm1-7.81h2.62l-1.28-9h0Z" transform="translate(40.73 5.7)"/><path class="cls-11" d="M107.33,136.28h4.83c3.49,0,5,2,5,5.57,0,1.8-.68,3.7-2.25,4.4,1.65.81,2.62,2.27,2.62,5,0,3.47-1.39,6.09-5.09,6.09h-5.14Zm3.25,8.63h1.18c1.24,0,2.18-.94,2.18-2.68,0-2-.68-3-2.12-3h-1.24Zm0,9.44H112c1.73,0,2.36-1.11,2.36-3.24s-.74-3.23-2.68-3.23h-1Z" transform="translate(40.73 5.7)"/><path class="cls-11" d="M121.86,157.32v-21h3.26v17.9h5.11v3.14Z" transform="translate(40.73 5.7)"/><path class="cls-11" d="M133.8,157.32v-21h8.7v3.15h-5.45v5.42h4.19V148h-4.19v6.18h5.82v3.14Z" transform="translate(40.73 5.7)"/><path class="cls-12" d="M48.83,179.08V162.14h7v2.53h-4.4V169h3.38v2.53H51.44v5h4.69v2.53Z" transform="translate(40.73 5.7)"/><path class="cls-12" d="M59.47,179.08V162.14H61.9l3.19,9.69h0v-9.69H67.5v16.94H65.22L61.88,168.5h0v10.58Z" transform="translate(40.73 5.7)"/><path class="cls-12" d="M71.3,179.08V162.14h7v2.53H73.92V169H77.3v2.53H73.92v5h4.69v2.53Z" transform="translate(40.73 5.7)"/><path class="cls-12" d="M84.57,179.08H82V162.14h3.67c2.94,0,4.44,1.38,4.44,5,0,2.72-1,3.82-1.84,4.27l2.22,7.67H87.78l-1.86-7a13.15,13.15,0,0,1-1.35.07Zm0-9.34h.93c1.41,0,1.94-.58,1.94-2.6s-.53-2.61-1.94-2.61h-.93Z" transform="translate(40.73 5.7)"/><path class="cls-12" d="M97.39,170.49h4.29v8.59h-1.27l-.48-1.26a3,3,0,0,1-2.64,1.5c-2.07,0-3.51-1.64-3.51-4.34v-8.73c0-2.4,1.27-4.35,3.84-4.35s3.93,2.12,3.93,4.65v1.08H99.06c0-2.53-.46-3.19-1.5-3.19-.63,0-1.16.42-1.16,1.85V175c0,1.08.32,1.78,1.22,1.78,1.06,0,1.44-.65,1.44-2.34v-1.65H97.39Z" transform="translate(40.73 5.7)"/><path class="cls-12" d="M110.34,179.08h-2.62v-7l-3.17-9.9h2.67l1.83,6.45h0l1.75-6.45h2.66l-3.17,9.9Z" transform="translate(40.73 5.7)"/><rect class="cls-13" x="61.99" y="104.31" width="2.98" height="11.24"/><path class="cls-14" d="M22.75,77.43c1.21.06,4.55.52,6.62,2.4,2.94,2.66,4.38,6.29,4.57,11.93s-1.11,10.09-11.19,10.09Z" transform="translate(40.73 5.7)"/><path class="cls-15" d="M22.75,77.43c-1.2.06-4.54.52-6.62,2.4-2.93,2.66-4.38,6.29-4.57,11.93s1.12,10.09,11.19,10.09Z" transform="translate(40.73 5.7)"/><rect class="cls-13" x="78.92" y="108.42" width="2.98" height="11.24"/><path class="cls-14" d="M39.6,56.52a9.08,9.08,0,0,1,6.62,4.94c2.93,5.46,4.38,12.91,4.57,24.5s-1.12,20.73-11.19,20.73Z" transform="translate(40.73 5.7)"/><path class="cls-15" d="M39.6,56.52A9,9,0,0,0,33,61.46C30,66.92,28.59,74.37,28.4,86s1.12,20.73,11.2,20.73Z" transform="translate(40.73 5.7)"/><rect class="cls-13" x="160.51" y="105.87" width="2.98" height="11.24"/><path class="cls-14" d="M121.19,54a9.08,9.08,0,0,1,6.62,4.94c2.93,5.46,4.38,12.91,4.57,24.5s-1.12,20.73-11.19,20.73Z" transform="translate(40.73 5.7)"/><path class="cls-15" d="M121.19,54a9,9,0,0,0-6.62,4.94c-2.94,5.46-4.38,12.91-4.57,24.5s1.12,20.73,11.19,20.73Z" transform="translate(40.73 5.7)"/><rect class="cls-13" x="177.23" y="110.84" width="2.98" height="11.24"/><path class="cls-14" d="M138,84c1.2.07,4.54.52,6.62,2.41,2.93,2.66,4.38,6.28,4.57,11.93s-1.12,10.09-11.19,10.09Z" transform="translate(40.73 5.7)"/><path class="cls-15" d="M138,84c-1.21.07-4.55.52-6.63,2.41C128.44,89,127,92.64,126.8,98.29s1.12,10.09,11.2,10.09Z" transform="translate(40.73 5.7)"/><polygon class="cls-16" points="139.33 116.37 102.84 116.37 93.11 126.31 149.06 126.31 139.33 116.37"/><rect class="cls-17" x="117.91" y="97.89" width="6.92" height="23.45"/><path class="cls-16" d="M109.28,49.42H52L36.75,97.49h87.79ZM73.42,68.32Z" transform="translate(40.73 5.7)"/><path class="cls-18" d="M90.84,94.54h13.79L102,81.83H89.65Z" transform="translate(40.73 5.7)"/><path class="cls-18" d="M89.5,80.19h12.19l-2.06-10H88.57Z" transform="translate(40.73 5.7)"/><path class="cls-18" d="M88.41,68.53H99.29l-1.65-8h-10Z" transform="translate(40.73 5.7)"/><path class="cls-18" d="M87.51,58.86h9.8L96,52.37H86.9Z" transform="translate(40.73 5.7)"/><path class="cls-18" d="M106.31,94.54h13.76l-4-12.71H103.7Z" transform="translate(40.73 5.7)"/><path class="cls-18" d="M103.37,80.19h12.14l-3.18-10h-11Z" transform="translate(40.73 5.7)"/><path class="cls-18" d="M101,68.53h10.84l-2.54-8h-10Z" transform="translate(40.73 5.7)"/><path class="cls-18" d="M99,58.86h9.76l-2.06-6.49h-9Z" transform="translate(40.73 5.7)"/><path class="cls-19" d="M72.1,94.54H89.19L88,81.83H73.29Z" transform="translate(40.73 5.7)"/><path class="cls-19" d="M73.44,80.19H87.85l-.94-10H74.38Z" transform="translate(40.73 5.7)"/><path class="cls-19" d="M74.53,68.53H86.76l-.75-8H75.28Z" transform="translate(40.73 5.7)"/><path class="cls-19" d="M75.43,58.86H85.86l-.61-6.49H76Z" transform="translate(40.73 5.7)"/><path class="cls-19" d="M56.66,94.54H70.45l1.19-12.71H59.27Z" transform="translate(40.73 5.7)"/><path class="cls-19" d="M59.61,80.19H71.79l.94-10H61.66Z" transform="translate(40.73 5.7)"/><path class="cls-19" d="M62,68.53H72.88l.75-8h-10Z" transform="translate(40.73 5.7)"/><path class="cls-19" d="M64,58.86h9.79l.61-6.49H65.32Z" transform="translate(40.73 5.7)"/><path class="cls-19" d="M41.22,94.54H55l2.61-12.71H45.25Z" transform="translate(40.73 5.7)"/><path class="cls-19" d="M45.78,80.19H57.93l2-10H49Z" transform="translate(40.73 5.7)"/><path class="cls-19" d="M49.48,68.53H60.32l1.65-8H52Z" transform="translate(40.73 5.7)"/><path class="cls-19" d="M52.55,58.86h9.76l1.33-6.49h-9Z" transform="translate(40.73 5.7)"/><polygon class="cls-18" points="128.73 87.53 121.37 87.53 121.37 100.24 129.92 100.24 128.73 87.53"/><polygon class="cls-18" points="127.64 75.88 121.37 75.88 121.37 85.89 128.58 85.89 127.64 75.88"/><polygon class="cls-18" points="126.74 66.21 121.37 66.21 121.37 74.23 127.49 74.23 126.74 66.21"/><polygon class="cls-18" points="125.98 58.08 121.37 58.08 121.37 64.57 126.59 64.57 125.98 58.08"/><path class="cls-9" d="M74.15,199.14H70.39L76,184.42H79.8Z" transform="translate(40.73 5.7)"/><path class="cls-9" d="M80.63,199.14H76.88l5.65-14.72h3.75Z" transform="translate(40.73 5.7)"/><path class="cls-9" d="M87.12,199.14H83.36L89,184.42h3.76Z" transform="translate(40.73 5.7)"/></g></g></svg>