<svg xmlns="http://www.w3.org/2000/svg" width="383.27" height="140.88" viewBox="0 0 383.27 140.88"><defs><style>.cls-1{fill:#d98000;}</style></defs><g id="レイヤー_2" data-name="レイヤー 2"><g id="オブジェクト"><polygon class="cls-1" points="54.03 0 0 140.88 28.51 140.88 82.55 0 54.03 0"/><polygon class="cls-1" points="104.16 0 50.12 140.88 78.63 140.88 132.66 0 104.16 0"/><polygon class="cls-1" points="154.28 0 100.24 140.88 128.75 140.88 182.78 0 154.28 0"/><polygon class="cls-1" points="204.4 0 150.36 140.88 178.87 140.88 232.91 0 204.4 0"/><polygon class="cls-1" points="254.52 0 200.48 140.88 228.99 140.88 283.03 0 254.52 0"/><polygon class="cls-1" points="304.64 0 250.6 140.88 279.11 140.88 333.15 0 304.64 0"/><polygon class="cls-1" points="354.76 0 300.72 140.88 329.23 140.88 383.27 0 354.76 0"/></g></g></svg>