<svg id="レイヤー_1" data-name="レイヤー 1" xmlns="http://www.w3.org/2000/svg" xmlns:xlink="http://www.w3.org/1999/xlink" width="95.28" height="43.09" viewBox="0 0 95.28 43.09"><defs><style>.cls-1{fill:none;}.cls-2,.cls-3,.cls-4{isolation:isolate;}.cls-3,.cls-4{font-size:9.85px;font-family:RoGSanSrfStd-Bd-90ms-RKSJ-H, Ro GSan Serif Std;}.cls-3,.cls-4,.cls-6{fill:#fff;}.cls-3{letter-spacing:0.01em;}.cls-4{letter-spacing:-0.01em;}.cls-5{clip-path:url(#clip-path);}</style><clipPath id="clip-path"><rect class="cls-1" width="94.81" height="43.09"/></clipPath></defs><g id="レイヤー_2" data-name="レイヤー 2"><g id="オブジェクト"><g class="cls-2"><text class="cls-3" transform="translate(26.37 19.91)">UNDER</text><text class="cls-4" transform="translate(0.02 30.75)">CONSTRACTION</text></g><g class="cls-5"><path class="cls-6" d="M10.21,9H4.64L13-12.88h5.6Z"/><path class="cls-6" d="M.58,9H-5L3.39-12.88H9Z"/><path class="cls-6" d="M19.84,9H14.27l8.38-21.87h5.58Z"/><path class="cls-6" d="M39.1,9H33.53l8.39-21.87h5.57Z"/><path class="cls-6" d="M29.47,9H23.9l8.38-21.87h5.58Z"/><path class="cls-6" d="M48.73,9H43.16l8.39-21.87h5.57Z"/><path class="cls-6" d="M68,9H62.42l8.39-21.87h5.57Z"/><path class="cls-6" d="M58.36,9H52.79l8.39-21.87h5.57Z"/><path class="cls-6" d="M77.62,9H72.05l8.39-21.87H86Z"/><path class="cls-6" d="M96.89,9H91.31L99.7-12.88h5.57Z"/><path class="cls-6" d="M87.26,9H81.68l8.39-21.87h5.57Z"/><path class="cls-6" d="M-4.54,56h-5.58l8.39-21.9H3.84Z"/><path class="cls-6" d="M14.72,56H9.14l8.39-21.9H23.1Z"/><path class="cls-6" d="M5.09,56H-.49L7.9,34.1h5.57Z"/><path class="cls-6" d="M24.35,56H18.77l8.39-21.9h5.57Z"/><path class="cls-6" d="M43.61,56H38l8.42-21.9H52Z"/><path class="cls-6" d="M34,56H28.4l8.39-21.9h5.57Z"/><path class="cls-6" d="M53.24,56H47.66l8.39-21.9h5.57Z"/><path class="cls-6" d="M72.5,56H66.92l8.39-21.9h5.57Z"/><path class="cls-6" d="M62.87,56H57.29l8.39-21.9h5.57Z"/><path class="cls-6" d="M82.13,56H76.55l8.39-21.9h5.57Z"/><path class="cls-6" d="M91.76,56H86.18l8.39-21.9h5.57Z"/></g></g></g></svg>