<?xml version="1.0" encoding="utf-8"?>
<!-- Generator: Adobe Illustrator 26.0.1, SVG Export Plug-In . SVG Version: 6.00 Build 0)  -->
<svg version="1.1" id="レイヤー_1" xmlns="http://www.w3.org/2000/svg" xmlns:xlink="http://www.w3.org/1999/xlink" x="0px"
	 y="0px" viewBox="0 0 95.3 43.1" style="enable-background:new 0 0 95.3 43.1;" xml:space="preserve">
<style type="text/css">
	.st0{fill:#FFFFFF;}
	.st1{font-family:'RoGSanSrfStd-Bd-90ms-RKSJ-H';}
	.st2{font-size:9.85px;}
	.st3{clip-path:url(#SVGID_00000093158500649824038670000018222203990197621893_);}
</style>
<g id="レイヤー_2_00000081646181023428025300000017648549784379474358_">
	<g id="オブジェクト">
		<text transform="matrix(1 0 0 1 26.39 19.91)" class="st0 st1 st2">UNDER</text>
		<text transform="matrix(1 0 0 1 0 30.75)" class="st0 st1 st2">CONSTRUCTION</text>
		<g>
			<defs>
				<rect id="SVGID_1_" x="0" width="94.8" height="43.1"/>
			</defs>
			<clipPath id="SVGID_00000038411292729498697690000010167066121128930751_">
				<use xlink:href="#SVGID_1_"  style="overflow:visible;"/>
			</clipPath>
			<g style="clip-path:url(#SVGID_00000038411292729498697690000010167066121128930751_);">
				<path class="st0" d="M10.2,9H4.7L13-12.9h5.6L10.2,9z"/>
				<path class="st0" d="M0.6,9H-5l8.4-21.9H9L0.6,9z"/>
				<path class="st0" d="M19.9,9h-5.6l8.4-21.9h5.6L19.9,9z"/>
				<path class="st0" d="M39.1,9h-5.6l8.4-21.9h5.6L39.1,9z"/>
				<path class="st0" d="M29.5,9h-5.6l8.4-21.9h5.6L29.5,9z"/>
				<path class="st0" d="M48.8,9h-5.6l8.4-21.9h5.6L48.8,9z"/>
				<path class="st0" d="M68,9h-5.6l8.4-21.9h5.6L68,9z"/>
				<path class="st0" d="M58.4,9h-5.6l8.4-21.9h5.6L58.4,9z"/>
				<path class="st0" d="M77.7,9h-5.6l8.4-21.9H86L77.7,9z"/>
				<path class="st0" d="M96.9,9h-5.6l8.4-21.9h5.6L96.9,9z"/>
				<path class="st0" d="M87.3,9h-5.6l8.4-21.9h5.6L87.3,9z"/>
				<path class="st0" d="M-4.5,56h-5.6l8.4-21.9h5.6L-4.5,56z"/>
				<path class="st0" d="M14.7,56H9.2l8.4-21.9h5.6L14.7,56z"/>
				<path class="st0" d="M5.1,56h-5.6l8.4-21.9h5.6L5.1,56z"/>
				<path class="st0" d="M24.4,56h-5.6l8.4-21.9h5.6L24.4,56z"/>
				<path class="st0" d="M43.6,56h-5.6l8.4-21.9H52L43.6,56z"/>
				<path class="st0" d="M34,56h-5.6l8.4-21.9h5.6L34,56z"/>
				<path class="st0" d="M53.3,56h-5.6l8.4-21.9h5.6L53.3,56z"/>
				<path class="st0" d="M72.5,56h-5.6l8.4-21.9h5.6L72.5,56z"/>
				<path class="st0" d="M62.9,56h-5.6l8.4-21.9h5.6L62.9,56z"/>
				<path class="st0" d="M82.2,56h-5.6L85,34.1h5.6L82.2,56z"/>
				<path class="st0" d="M91.8,56h-5.6l8.4-21.9h5.6L91.8,56z"/>
			</g>
		</g>
	</g>
</g>
</svg>
