<svg xmlns="http://www.w3.org/2000/svg" width="167.6" height="47.46" viewBox="0 0 167.6 47.46"><defs><style>.cls-1{fill:#fff;}</style></defs><g id="レイヤー_2" data-name="レイヤー 2"><g id="オブジェクト"><polygon class="cls-1" points="61.76 0 48.58 34.35 26.5 34.35 35.68 10.34 33.19 5.45 22.09 34.35 0 34.35 13.18 0 34.55 0 37.47 5.7 39.67 0 61.76 0"/><polygon class="cls-1" points="88.16 15.19 90.6 8.82 86.19 8.82 82.47 18.64 85.92 18.64 84.51 22.26 81.06 22.26 76.95 32.87 81.36 32.87 83.8 26.5 105.89 26.5 102.92 34.35 54.33 34.35 64.68 7.33 113.27 7.33 110.25 15.19 88.16 15.19"/><path class="cls-1" d="M131.28,32.87h4.41l9.25-24h-4.41Zm-22.61,1.48L119,7.33H167.6l-10.35,27Z"/><path class="cls-1" d="M48.12,43l.57-1.62h5l.37-1H49.6l.56-1.56h4.42L55,37.54h2.31l-.42,1.19h4.36l-.55,1.56H56.33l-.37,1h4.77L60.16,43H56.5a4.45,4.45,0,0,0,3.13,2.47L59,47.32c-2.12-.44-3.33-1.26-4.11-2.82l-1,2.91H51.49l1-2.9a14.78,14.78,0,0,1-6.26,2.83l.67-1.89A13,13,0,0,0,52,43Z"/><path class="cls-1" d="M62.24,45.54a10.86,10.86,0,0,0,4.68-2.22h-3.6l.55-1.54h1.78l-.18-1.46h2.32l.13,1.46h.82l.65-1.84H65l.54-1.5h4.43l.33-.92h2.37l-.33.92h4.36l-.53,1.5H71.75l-.65,1.84h.78l1.29-1.46h2.3l-1.25,1.46H76l-.54,1.54H71.9a4.75,4.75,0,0,0,2.95,2.15l-.68,1.9a5.38,5.38,0,0,1-4.1-2.7l-1,2.78H66.72l.92-2.6a12.64,12.64,0,0,1-6.06,2.56Z"/><path class="cls-1" d="M79.19,40l.54-1.53h3.73l.8-.81h2.49L86,38.5h4.37L89.87,40H84.29l-.85.79a5.77,5.77,0,0,1,2.11-.49c.69,0,1.14.25,1.3.71.07.24,0,.45-.21,1.14l3.24-.26-.62,1.73-3.21.19-.49,1.37H83.2l.38-1.06c-1.67.31-2.25.57-2.43,1.08s.14.62,1.53.62S86,45.8,87.8,45.7l-.62,1.72c-1,0-1.37,0-2,0-3.75,0-4.74-.05-5.47-.26A1.43,1.43,0,0,1,78.54,46a1.3,1.3,0,0,1,.07-.7A4,4,0,0,1,81,43.36a14.72,14.72,0,0,1,3.14-.83c.13-.35.15-.5.11-.62s-.23-.24-.48-.24a5.61,5.61,0,0,0-3,1.29H78.05A42.73,42.73,0,0,0,81.69,40Z"/><path class="cls-1" d="M103.73,37.75l-2.42,6.81h-2l2.42-6.81Zm-2.17,8,2.83-8h2.21l-2.82,7.93c-.47,1.25-1.22,1.67-2.91,1.65H98.36l.57-1.63Zm-2-5.38a6.32,6.32,0,0,1-1.54-.8l-.28.8Zm-1.61-.86a4.51,4.51,0,0,1-.58-.63,8.75,8.75,0,0,1-1,.63Zm-.6,2.23.12-.34h-2l-.12.34Zm-.41,1.16.11-.32h-2l-.11.32Zm-1,3.1.24-.69H94.42l-.25.69Zm-.27-5.63.23-.66a10,10,0,0,1-1.72.66Zm-2.6.31L93.63,39a10,10,0,0,0,3.23-1.42h2a4.11,4.11,0,0,0,2.1,1.28l-.57,1.62-.53-.12L99,42.74c-.29.79-.73,1-2.16,1H94.54l-.17.33h4.32l-.72,2c-.3.85-1,1.22-2.29,1.21h-3.9l.39-1.11a8.94,8.94,0,0,1-1.49.83l.78-2.21a3,3,0,0,0,1.39-1.72l1-2.7Z"/><path class="cls-1" d="M111.62,45.85c.09-.57-.08-.81-.6-.81-.31,0-.51.1-.58.29s.27.53.88.53h.3Zm-1.39-6.12.59-1.66h8.57l-.57,1.59L115,41.19c.67-.06.93-.08,1.23-.08,2,0,3.21,1.2,2.65,2.76a5.05,5.05,0,0,1-2.3,2.58,9.54,9.54,0,0,1-4.67,1c-3,0-4.26-.7-3.78-2,.39-1.11,1.94-2,3.57-2s2.54.77,2.19,1.74a5.09,5.09,0,0,1-.21.47,3.18,3.18,0,0,0,1.84-.56,2.47,2.47,0,0,0,.86-1.11c.33-.94-.34-1.45-1.91-1.45a14.21,14.21,0,0,0-4.38.71,15.63,15.63,0,0,0-2.91,1.12l.67-1.89.54-.23,1.59-.61,1.58-.62c1.72-.69,1.91-.76,3.6-1.37Z"/></g></g></svg>