<svg xmlns="http://www.w3.org/2000/svg" width="582.07" height="177.41" viewBox="0 0 582.07 177.41"><defs><style>.cls-1{fill:#da8000;}</style></defs><g id="レイヤー_2" data-name="レイヤー 2"><g id="オブジェクト"><polygon class="cls-1" points="45.24 177.41 0 177.41 68.05 0 113.28 0 45.24 177.41"/><polygon class="cls-1" points="123.37 177.41 78.13 177.41 146.18 0 191.41 0 123.37 177.41"/><polygon class="cls-1" points="201.5 177.41 156.26 177.41 224.31 0 269.55 0 201.5 177.41"/><polygon class="cls-1" points="279.63 177.41 234.4 177.41 302.44 0 347.68 0 279.63 177.41"/><polygon class="cls-1" points="357.76 177.41 312.53 177.41 380.57 0 425.81 0 357.76 177.41"/><polygon class="cls-1" points="435.9 177.41 390.66 177.41 458.7 0 503.94 0 435.9 177.41"/><polygon class="cls-1" points="514.03 177.41 468.79 177.41 536.84 0 582.07 0 514.03 177.41"/></g></g></svg>