<svg xmlns="http://www.w3.org/2000/svg" xmlns:xlink="http://www.w3.org/1999/xlink" width="468.98" height="146.18" viewBox="0 0 468.98 146.18"><defs><style>.cls-1{fill:#231815;}.cls-2{fill:gray;}.cls-3{fill:#ffd800;}.cls-4{fill:#d6d6d7;}.cls-5{fill:url(#名称未設定グラデーション_5);}.cls-6{fill:#e6e6e6;}.cls-7{fill:url(#名称未設定グラデーション_5-2);}.cls-8{fill:url(#名称未設定グラデーション_5-3);}.cls-9{fill:url(#名称未設定グラデーション_5-4);}.cls-10{fill:#fff;}</style><linearGradient id="名称未設定グラデーション_5" x1="370.23" y1="103.75" x2="370.23" y2="55" gradientUnits="userSpaceOnUse"><stop offset="0" stop-color="#fff"/><stop offset="1" stop-color="#333"/></linearGradient><linearGradient id="名称未設定グラデーション_5-2" x1="225.29" y1="103.75" x2="225.29" y2="55" xlink:href="#名称未設定グラデーション_5"/><linearGradient id="名称未設定グラデーション_5-3" x1="53.59" y1="103.75" x2="53.59" y2="55" xlink:href="#名称未設定グラデーション_5"/><linearGradient id="名称未設定グラデーション_5-4" x1="119.72" y1="103.75" x2="119.72" y2="55" xlink:href="#名称未設定グラデーション_5"/></defs><g id="レイヤー_2" data-name="レイヤー 2"><g id="オブジェクト"><polygon class="cls-1" points="185.44 18.3 192.46 0 42.99 0 0 112.08 433.07 112.08 468.98 18.3 185.44 18.3"/><path class="cls-2" d="M142.69,102.21H80.51l24.11-63-2.2-4.32L76.55,102.21H14.36L49.78,9.87h57.61l4.86,9.49,3.67-9.49H178.1Z"/><path class="cls-2" d="M284.49,102.21H156.16l28.35-74H312.84l-10.06,26.2H240.59l6.1-15.91h-3.94l-6.81,17.93h8.65L238.53,72h-8.61L222.2,91.92h3.93L232.23,76H294.4Z"/><path class="cls-2" d="M426.28,102.21H298l28.36-74H454.63ZM364,91.92h3.95l20.55-53.46h-4Z"/><path class="cls-3" d="M245.38,51.08l6.1-15.91h-11l-9.31,24.51h8.61l-3.51,9.06h-8.61L217.39,95.21h11l6.1-15.91h55.13l-7.41,19.62H160.94l25.84-67.46H308.05l-7.53,19.62Z"/><path class="cls-3" d="M302.74,98.92l25.83-67.46H449.85L424,98.92Zm56.45-3.71h11l23.08-60h-11Z"/><path class="cls-4" d="M173.31,13.16,140.42,98.92H85.29L108.21,39,102,26.77,74.28,98.92H19.15L52,13.16h53.34l7.3,14.24,5.5-14.24Z"/><path class="cls-4" d="M245.38,51.08l6.1-15.91h-11l-9.31,24.51h8.61l-3.51,9.06h-8.61L217.39,95.21h11l6.1-15.91h55.13l-7.41,19.62H160.94l25.84-67.46H308.05l-7.53,19.62Z"/><path class="cls-4" d="M302.74,98.92l25.83-67.46H449.85L424,98.92Zm56.45-3.71h11l23.08-60h-11Z"/><polygon class="cls-5" points="305.13 97.27 317.59 64.75 369.14 64.75 356.79 96.86 371.32 96.86 383.67 64.75 435.34 64.75 422.88 97.27 305.13 97.27"/><path class="cls-6" d="M432.94,66.39,421.75,95.63H373.56L384.8,66.39h48.14m-66.2,0L356.12,94l-.62,1.6h-48l11.2-29.24h48m71-3.29H382.54L370.19,95.21h-11L371.53,63.1H316.45L302.74,98.92H424L437.73,63.1Z"/><polygon class="cls-7" points="163.33 97.27 175.79 64.75 236.06 64.75 235.15 67.1 226.54 67.1 214.99 96.86 229.53 96.86 235.63 80.95 287.25 80.95 281.08 97.27 163.33 97.27"/><path class="cls-6" d="M225.05,66.39l-.45,1.16L214.33,94l-.63,1.61h-48l11.19-29.24h48.13m59.82,16.2-4.93,13H231.76l5-13h48.11M238.46,63.1h-63.8L160.94,98.92H282.22l7.41-19.62H234.5l-6.1,15.91h-11l10.27-26.47h8.61l2.19-5.64Z"/><polygon class="cls-8" points="21.54 97.27 34.02 64.75 85.64 64.75 73.15 97.27 21.54 97.27"/><path class="cls-6" d="M83.25,66.39,72,95.63H23.93L35.15,66.39h48.1M88,63.1H32.89L19.15,98.92H74.28L88,63.1Z"/><polygon class="cls-9" points="87.68 97.27 100.12 64.75 151.77 64.75 139.29 97.27 87.68 97.27"/><path class="cls-6" d="M149.37,66.39,138.16,95.63H90.07l11.18-29.24h48.12m4.79-3.29H99L85.29,98.92h55.13L154.16,63.1Z"/><path class="cls-10" d="M138.93,134.23l1.53-4.29h13.16l1-2.76H142.87l1.48-4.13h11.72l1.12-3.17h6.12l-1.12,3.17h11.57l-1.47,4.13H160.72l-1,2.76h12.64l-1.52,4.29h-9.7c1.37,3.19,3.9,5.2,8.29,6.55l-1.79,5c-5.64-1.15-8.84-3.33-10.91-7.47L154,146.07h-6.12l2.74-7.7a39,39,0,0,1-16.6,7.5l1.78-5a34.53,34.53,0,0,0,13.31-6.64Z"/><path class="cls-10" d="M176.38,141.1a28.8,28.8,0,0,0,12.42-5.9h-9.55l1.45-4.08h4.72l-.47-3.85h6.15l.33,3.85h2.17l1.73-4.86H183.57l1.42-4h11.76l.87-2.44h6.27l-.87,2.44h11.57l-1.42,4H201.6l-1.73,4.86h2.06l3.44-3.85h6.08l-3.32,3.85h4.61l-1.46,4.08H202c1.51,2.71,3.64,4.26,7.81,5.72L208,146c-5.3-1-8.4-3-10.88-7.15l-2.61,7.36h-6.27l2.44-6.87c-5.93,4.13-9.92,5.83-16.09,6.78Z"/><path class="cls-10" d="M221.31,126.49l1.45-4h9.87l2.13-2.15h6.6l-1.87,2.15h11.58l-1.45,4H234.84l-2.25,2.1a15.46,15.46,0,0,1,5.58-1.29c1.84,0,3,.66,3.46,1.87.19.63.09,1.2-.55,3l8.57-.69L248,136.09l-8.5.49-1.3,3.65H232l1-2.81c-4.42.83-6,1.52-6.44,2.87s.38,1.64,4.06,1.64,8.72-.14,13.56-.4l-1.62,4.57c-2.64.06-3.64.08-5.41.08-9.95,0-12.57-.11-14.5-.69a3.78,3.78,0,0,1-3-3.24,3.63,3.63,0,0,1,.18-1.87c.67-1.87,3-3.74,6.37-5.06a38.89,38.89,0,0,1,8.33-2.19c.34-.94.41-1.35.3-1.66s-.62-.64-1.28-.64c-2.18,0-5,1.15-8.08,3.42H218.3a108,108,0,0,0,9.65-7.76Z"/><path class="cls-10" d="M258.1,128.08l1.51-4.26a26.82,26.82,0,0,0,8.57-3.76h5.16a11,11,0,0,0,5.57,3.39l-1.52,4.28-1.4-.32-2.22,6.27c-.79,2.1-1.94,2.64-5.74,2.76h-6l-.45.86H273l-1.91,5.38c-.8,2.24-2.62,3.22-6.07,3.19H254.69l1-2.93a23.16,23.16,0,0,1-3.95,2.18l2.08-5.83a8,8,0,0,0,3.69-4.57l2.54-7.16Zm6.88-.81.63-1.75a27.49,27.49,0,0,1-4.57,1.75Zm.71,14.92.65-1.84H261.7l-.65,1.84Zm2.63-8.22.29-.84h-5.16l-.29.84Zm1.09-3.08.32-.89h-5.16l-.32.89ZM271,125a12.66,12.66,0,0,1-1.55-1.67,19.37,19.37,0,0,1-2.73,1.67Zm4.27,2.3a17.54,17.54,0,0,1-4.07-2.13l-.76,2.13Zm5.36,14.26,7.49-21.07H294l-7.46,21c-1.25,3.31-3.24,4.43-7.71,4.37h-6.68l1.54-4.31Zm5.76-21.07-6.42,18h-5.3l6.41-18Z"/><path class="cls-10" d="M303.63,125.69l1.56-4.4H327.9l-1.5,4.23-10.07,4a31.21,31.21,0,0,1,3.28-.2c5.42,0,8.5,3.16,7,7.3a13.38,13.38,0,0,1-6.12,6.84c-3.21,1.78-7.24,2.65-12.37,2.65-7.81,0-11.29-1.84-10-5.38,1-2.93,5.17-5.2,9.48-5.2s6.72,2,5.8,4.63a11,11,0,0,1-.55,1.23c2.43-.2,3.71-.57,4.87-1.46a6.61,6.61,0,0,0,2.27-3c.89-2.5-.88-3.85-5-3.85a37.92,37.92,0,0,0-11.63,1.9,42.27,42.27,0,0,0-7.72,3l1.78-5c.35-.17,1.34-.58,1.43-.6,1.4-.52,2.82-1.1,4.23-1.64l4.19-1.64c4.56-1.81,5.07-2,9.55-3.62Zm3.67,16.24c.24-1.52-.2-2.16-1.6-2.16-.81,0-1.34.26-1.53.78-.28.81.72,1.41,2.34,1.41H307Z"/></g></g></svg>