<svg xmlns="http://www.w3.org/2000/svg" width="1274" height="261.76" viewBox="0 0 1274 261.76"><defs><style>.cls-1{fill:none;stroke:#d98000;stroke-miterlimit:10;stroke-width:0.89px;}</style></defs><g id="レイヤー_2" data-name="レイヤー 2"><g id="背景"><polygon class="cls-1" points="469.63 0.45 369.58 261.32 201.85 261.32 271.59 78.94 252.67 41.83 168.38 261.32 0.65 261.32 100.7 0.45 262.98 0.45 285.17 43.74 301.9 0.45 469.63 0.45"/><polygon class="cls-1" points="670.11 115.78 688.66 67.39 655.19 67.39 626.88 141.96 653.08 141.96 642.41 169.52 616.21 169.52 584.97 250.04 618.44 250.04 637 201.65 804.73 201.65 782.17 261.32 413.24 261.32 491.83 56.11 860.76 56.11 837.84 115.78 670.11 115.78"/><path class="cls-1" d="M997.56,250H1031l70.22-182.65h-33.47ZM825.83,261.32,904.42,56.11h368.93l-78.59,205.21Z"/></g></g></svg>